<?xml version="1.0" encoding="utf-8"?>
<!-- Generator: Adobe Illustrator 25.4.1, SVG Export Plug-In . SVG Version: 6.00 Build 0)  -->
<svg version="1.1" id="Capa_1" xmlns="http://www.w3.org/2000/svg" xmlns:xlink="http://www.w3.org/1999/xlink" x="0px" y="0px"
	 viewBox="0 0 125.3 112.4" style="enable-background:new 0 0 125.3 112.4;" xml:space="preserve">
<style type="text/css">
	.st0{fill:#BF8C1B;}
</style>
<path class="st0" d="M5,13.5h9.2c-3.4,3.2-6.5,6.7-9.2,10.6V13.5 M100.7,17.8c12,9.4,19.5,23.1,19.5,38.4c0,14.9-7.2,28.8-19.5,38.4
	V17.8 M5,88.3c2.7,4,5.9,7.7,9.5,10.9H5V88.3 M29.5,8.5h66.2V104c17.7-9.9,29.5-27.6,29.5-47.7c0-31-28.1-56.2-62.6-56.2
	C51.1-0.1,39.7,2.9,29.5,8.5z M0,104.2h30c-18-9.9-30-27.7-30-48C0,36.1,11.8,18.4,29.5,8.5H0V104.2z M95.8,104l-0.5,0.3h0.5V104
	L95.8,104z M62.6,112.4c11.4,0,22.6-2.8,32.6-8.2H30C40,109.7,51.2,112.5,62.6,112.4z"/>
<circle class="st0" cx="49.6" cy="56.2" r="18.5"/>
</svg>
