<?xml version="1.0" encoding="utf-8"?>
<!-- Generator: Adobe Illustrator 25.4.1, SVG Export Plug-In . SVG Version: 6.00 Build 0)  -->
<svg version="1.1" id="Capa_1" xmlns="http://www.w3.org/2000/svg" xmlns:xlink="http://www.w3.org/1999/xlink" x="0px" y="0px"
	 viewBox="0 0 36 25.5" style="enable-background:new 0 0 36 25.5;" xml:space="preserve">
<path d="M0.5,11.8V1.6h2.3L6,6.8C6.2,7,6.3,7.3,6.5,7.6s0.3,0.7,0.5,1s0.3,0.8,0.5,1.3H7.3c0-0.4-0.1-0.8-0.1-1.2s0-0.8-0.1-1.2
	s0-0.7,0-1V1.6h2.1v10.2H7L4,7.1c-0.2-0.4-0.4-0.7-0.6-1S3.1,5.4,2.9,5S2.4,4.1,2.2,3.6h0.3c0,0.5,0.1,1,0.1,1.4s0,0.9,0.1,1.2
	s0,0.7,0,0.9v4.7H0.5z"/>
<path d="M10,10.7V0.5h2.1v8.5h4.4v1.7H10z"/>
<path d="M20.7,25V14.8h2.1v8.5h4.4V25H20.7z"/>
<path d="M28,23.7V13.5h4c0.8,0,1.4,0.1,2,0.4c0.5,0.3,1,0.7,1.2,1.2c0.3,0.5,0.4,1.1,0.4,1.8c0,0.7-0.1,1.3-0.4,1.8
	c-0.3,0.5-0.7,0.9-1.3,1.2c-0.5,0.3-1.2,0.4-2,0.4h-2.6v-1.7h2.2c0.4,0,0.8-0.1,1.1-0.2c0.3-0.1,0.5-0.4,0.6-0.6
	c0.1-0.3,0.2-0.6,0.2-0.9s-0.1-0.6-0.2-0.9c-0.1-0.3-0.3-0.5-0.6-0.6c-0.3-0.1-0.6-0.2-1.1-0.2h-1.5v8.5H28z"/>
<path d="M15.1,13.5v-1.7h7.4v1.7H15.1z M17.9,16.4V9h1.8v7.4H17.9z"/>
</svg>
